# xmcd
#
# Track frame offsets: 
#        150
#        16588
#        29266
#        41375
#        55202
#        71629
#        87722
#        105356
#        115815
#        135959
#        156896
#        173090
#        203165
#        213808
#        230218
#        254357
#        268416
#        293087
#        309785
#        325208
#        340004
#
# Disc length: 4765 seconds
#
# Revision: 0
# Processed by: cddbd v1.5.2PL0 Copyright (c) Steve Scherf et al.
# Submitted via: ExactAudioCopy v0.99pb5
#
DISCID=21129b15
DTITLE=Elvis Presley  - FTD 67-2 - Raised On Rock, CD 2  
DYEAR=1900
DGENRE=
TTITLE0=For Ol' Times Sake
TTITLE1=If You Don't Come Back
TTITLE2=Find Out What's Happening
TTITLE3=Raised On Rock
TTITLE4=Three Corn Patches
TTITLE5=Just A Little Bit (including FS)
TTITLE6=If You Don't Come Back (takes 1, 2, 3)
TTITLE7=I Miss You (take 1)
TTITLE8=Girl Of Mine (take 1)
TTITLE9=Find Out What's Happening (takes 1, 2, 4, 5)
TTITLE10=Three Corn Patches (takes 4, 5, 6)
TTITLE11=For Ol' Times Sake (takes 5, 6, 7)
TTITLE12=I Miss You (take 10)
TTITLE13=If You Don't Come Back (takes 8, 6)
TTITLE14=Find Out What's Happening (takes 8, 7)
TTITLE15=Are You Sincere (take 1)
TTITLE16=Girl Of Mine (takes 3, 4, 5, 6)
TTITLE17=Three Corn Patches (takes 9, 10)
TTITLE18=I Miss You (takes 12, 13, 14, 15)
TTITLE19=The Wonders You Perform
TTITLE20=Good, Bad But Beautiful
EXTD=
EXTT0=
EXTT1=
EXTT2=
EXTT3=
EXTT4=
EXTT5=
EXTT6=
EXTT7=
EXTT8=
EXTT9=
EXTT10=
EXTT11=
EXTT12=
EXTT13=
EXTT14=
EXTT15=
EXTT16=
EXTT17=
EXTT18=
EXTT19=
EXTT20=
PLAYORDER=
